GIL02_fast3_RRA_states
nRows=5
nColumns=47

# SIMM Motion File Header:
name GIL02_fast3_RRA_states
datacolumns 47
datarows 5
otherdata 1
range 0.30267000000000016000 0.30467000000000016000
endheader
time	pelvis_tx	pelvis_ty	pelvis_tz	pelvis_tilt	pelvis_list	pelvis_rotation	hip_flexion_r	hip_adduction_r	hip_rotation_r	knee_angle_r	ankle_angle_r	subtalar_angle_r	mtp_angle_r	hip_flexion_l	hip_adduction_l	hip_rotation_l	knee_angle_l	ankle_angle_l	subtalar_angle_l	mtp_angle_l	lumbar_extension	lumbar_bending	lumbar_rotation	pelvis_tx_u	pelvis_ty_u	pelvis_tz_u	pelvis_tilt_u	pelvis_list_u	pelvis_rotation_u	hip_flexion_r_u	hip_adduction_r_u	hip_rotation_r_u	knee_angle_r_u	ankle_angle_r_u	subtalar_angle_r_u	mtp_angle_r_u	hip_flexion_l_u	hip_adduction_l_u	hip_rotation_l_u	knee_angle_l_u	ankle_angle_l_u	subtalar_angle_l_u	mtp_angle_l_u	lumbar_extension_u	lumbar_bending_u	lumbar_rotation_u
      0.30267000000000016000	      0.83318777086618467000	      0.95895988090680806000	     -0.18749730603077108000	      0.19653682511900297000	      2.34775394149761140000	      2.37664593579375570000	     -6.50874016245756780000	      0.29165169677697000000	     11.30577089244672700000	     -4.39307579211756670000	      7.89126026379068260000	     -0.00000000000002291776	     -0.00000000000007335617	     24.26057477960449700000	      3.59972976312784620000	      1.65222124931557970000	    -44.00367646756122800000	     -2.59579703454131750000	     -0.00000000000000192417	     -0.00000000000000109895	     -1.89007702273416170000	      0.73103865988648586000	      2.99257628086950910000	      1.42083698403654960000	     -0.05125667101002204900	      0.03067815436805004100	      1.26355063201056340000	     29.89258577741524900000	    -37.82508153621617500000	   -143.52196388917446000000	    -45.09203734578678500000	     30.72409325719873500000	     84.93243494487980200000	     19.73170071802367100000	      0.00000000000016330841	     -0.00000000000101203959	     35.67302151072873800000	     30.62578707357646800000	    -51.23599749268827700000	    344.14456632663610000000	     17.76598726182579900000	     -0.00000000000003540674	      0.00000000000000655498	      7.92496739902560780000	    -25.17822982779906100000	     30.92712357666840700000
      0.30317000000000016000	      0.83389817295892410000	      0.95893371420695062000	     -0.18748186326036220000	      0.19712342705580682000	      2.36270531905350280000	      2.35765624323344310000	     -6.58032374971480480000	      0.26909943732217317000	     11.32107264897127600000	     -4.35083975032589440000	      7.90116467974822980000	     -0.00000000000002283431	     -0.00000000000007386506	     24.27831656350552300000	      3.61496939358449950000	      1.62628069989068140000	    -43.83136698437211700000	     -2.58726583276685410000	     -0.00000000000000194182	     -0.00000000000000109581	     -1.88606350565058700000	      0.71844496628007182000	      3.00807112627275460000	      1.42077007385441840000	     -0.05340999945533860700	      0.03109434760177102300	      1.08327594792091770000	     29.91286601992113200000	    -38.13387028651460800000	   -142.81209151385494000000	    -45.11663378112631800000	     30.48288035398449100000	     84.01040939767439400000	     19.88670521682773200000	      0.00000000000015436764	     -0.00000000000102069104	     35.29435377424448500000	     30.33264914402169400000	    -52.52701050789332300000	    345.09154192222911000000	     16.35717239152376500000	     -0.00000000000003547570	      0.00000000000000545176	      8.12825269978785410000	    -25.19660872346040400000	     31.05187437468584500000
      0.30367000000000016000	      0.83460853962134030000	      0.95890647103560100000	     -0.18746621026051041000	      0.19762051721303028000	      2.37766674110738400000	      2.33851188263988030000	     -6.65155194725803510000	      0.24653544209762107000	     11.33625373834423500000	     -4.30906674569408030000	      7.91114794337871620000	     -0.00000000000002276210	     -0.00000000000007437220	     24.29586937997491700000	      3.63006232118552540000	      1.59969342808405710000	    -43.65858676169403200000	     -2.57944149861505250000	     -0.00000000000000195960	     -0.00000000000000109282	     -1.88194961525055350000	      0.70584199607267784000	      3.02362777293381630000	      1.42069525156657830000	     -0.05556255572518673700	      0.03151907622356563100	      0.90549837250797183000	     29.93274776512679100000	    -38.44375580983390300000	   -142.10037976517472000000	    -45.13895552320585100000	     30.24146119876921200000	     83.08020711998216300000	     20.04755752264182400000	      0.00000000000016152062	     -0.00000000000102327463	     34.91716608741737100000	     30.03896507245725200000	    -53.82288617110449300000	    346.02749997050495000000	     14.93854057917428300000	     -0.00000000000003573833	      0.00000000000000602251	      8.32646643849923680000	    -25.21531812877160300000	     31.17433110524210000000
      0.30417000000000016000	      0.83531886687996049000	      0.95887815182317859000	     -0.18745034277869624000	      0.19802936357132137000	      2.39263798409096930000	      2.31921231103836870000	     -6.72242385995348450000	      0.22396087207971105000	     11.35131407235814100000	     -4.26776088383666520000	      7.92121322655356240000	     -0.00000000000002268390	     -0.00000000000007488477	     24.31323395974198600000	      3.64500826724700080000	      1.57245708300004190000	    -43.48534132357479400000	     -2.57232893120424850000	     -0.00000000000000197718	     -0.00000000000000109023	     -1.87773791304768920000	      0.69322961274539685000	      3.03924507784067190000	      1.42061244625204110000	     -0.05771407765454567000	      0.03195223721117349000	      0.73034988416957258000	     29.95213316995659600000	    -38.75469945191180400000	   -141.38705175523518000000	    -45.15893559497464300000	     29.99981589976807700000	     82.14196218092034500000	     20.21434704491382900000	      0.00000000000016062176	     -0.00000000000104053200	     34.54135969776371700000	     29.74473292775993400000	    -55.12314407553811400000	    346.95242186621908000000	     13.51007657369526200000	     -0.00000000000003494974	      0.00000000000000471780	      8.51943689891754550000	    -25.23424002676328800000	     31.29451062859460800000
      0.30467000000000016000	      0.83602915072536710000	      0.95884875717355400000	     -0.18743425663443586000	      0.19835132726301646000	      2.40761877535203440000	      2.29975701280265540000	     -6.79293876672580850000	      0.20137690795838489000	     11.36625351478804000000	     -4.22692610201340010000	      7.93136330357010080000	     -0.00000000000002260512	     -0.00000000000007540456	     24.33041095323977400000	      3.65980696246442470000	      1.54456963496825070000	    -43.31163618211211000000	     -2.56593306285198790000	     -0.00000000000000199483	     -0.00000000000000108721	     -1.87343108087849530000	      0.68060774010899339000	      3.05492190721450730000	      1.42052158769106510000	     -0.05986430325687967800	      0.03239373079156569100	      0.55796261537709935000	     29.97092498673335800000	    -39.06666497019563200000	   -140.67233093018058000000	    -45.17650685530425400000	     29.75793435300634100000	     81.19580737215598300000	     20.38721701920732000000	      0.00000000000013709068	     -0.00000000000103867430	     34.16683518271099700000	     29.44995126501584800000	    -56.42729450528715800000	    347.86628886550034000000	     12.07176958096286700000	     -0.00000000000003528922	      0.00000000000000682510	      8.70699194684948630000	    -25.25325751269807400000	     31.41243186294772700000
